<svg xmlns="http://www.w3.org/2000/svg" width="800" height="800" viewBox="0 0 800 800">
  <defs>
    <style>
      .cls-1 {
        fill: #0c0a0b;
        fill-rule: evenodd;
      }
    </style>
  </defs>
  <path id="Logo_Mark" data-name="Logo Mark" class="cls-1" d="M799.343,393.736C796.105,176.079,618.153-.01,399.745-0.01,179.315-.01-0.011,179.317-0.011,399.746c0,218.408,176.087,396.359,393.745,399.6V799.5H799.5V393.736h-0.152ZM405.754,414.259L669.433,677.934a386.294,386.294,0,0,1-263.679,109.39V414.259Zm8.5-8.5H787.323A386.294,386.294,0,0,1,677.932,669.435Zm373.073-12.021H402.229L130.051,121.56C199.894,53.829,295,12.011,399.745,12.011,611.527,12.011,784.086,182.711,787.323,393.736Zm-775.315,6.01c0-104.74,41.817-199.846,109.543-269.688l272.183,272.18V787.324C182.708,784.087,12.008,611.527,12.008,399.746ZM677.929,686.428L778.976,787.476H496.994A399.506,399.506,0,0,0,677.929,686.428Zm109.547,92.55L686.427,677.93A399.514,399.514,0,0,0,787.476,497V778.978Z"/>
</svg>
