<svg xmlns="http://www.w3.org/2000/svg" width="800" height="800" viewBox="0 0 800 800">
  <defs>
    <style>
      .cls-1 {
        fill: #0c0a0b;
        fill-rule: evenodd;
      }
    </style>
  </defs>
  <path id="Logo_Mark" data-name="Logo Mark" class="cls-1" d="M400,0C179.438,0,0,179.44,0,400S179.438,800,400,800,800,620.56,800,400,620.561,0,400,0ZM514.16,394.457L723.779,184.836a386.536,386.536,0,0,1,65,209.621H514.16Zm274.619,11.08a386.545,386.545,0,0,1-65,209.626L514.16,405.537H788.779ZM717.353,175.6L498.492,394.457H405.54V301.51L624.4,82.646A392.045,392.045,0,0,1,717.353,175.6ZM405.54,11.22a386.539,386.539,0,0,1,209.621,65L405.54,285.842V11.22ZM394.46,285.842L184.838,76.219a386.54,386.54,0,0,1,209.622-65V285.842ZM175.6,82.646L394.46,301.51v92.947H301.513L82.647,175.6A392.046,392.046,0,0,1,175.6,82.646ZM285.845,405.537L76.221,615.163a386.547,386.547,0,0,1-65-209.626H285.845ZM11.22,394.457a386.541,386.541,0,0,1,65-209.621L285.845,394.457H11.22ZM82.647,624.4L301.513,405.537H394.46V498.49L175.6,717.354A392.025,392.025,0,0,1,82.647,624.4ZM394.46,788.78a386.544,386.544,0,0,1-209.622-65L394.46,514.158V788.78Zm11.08-274.622L615.164,723.779a386.553,386.553,0,0,1-209.624,65V514.158ZM624.406,717.352L405.54,498.49V405.537h92.952L717.352,624.4A392.025,392.025,0,0,1,624.406,717.352Z"/>
</svg>
